<svg width="119" height="104" viewBox="0 0 119 104" fill="none" xmlns="http://www.w3.org/2000/svg">
<path fill-rule="evenodd" clip-rule="evenodd" d="M50 10C38.9543 10 30 18.9543 30 30H29C20.5992 30 16.3988 30 13.1901 31.6349C10.3677 33.073 8.073 35.3677 6.6349 38.1901C5 41.3988 5 45.5992 5 54V71C5 79.4008 5 83.6012 6.6349 86.8099C8.073 89.6323 10.3677 91.927 13.1901 93.3651C15.8436 94.7171 19.1754 94.9511 25 94.9915V69C25 60.5992 25 56.3988 26.6349 53.1901C28.073 50.3677 30.3677 48.073 33.1901 46.6349C36.3988 45 40.5992 45 49 45H94.8561C94.6765 42.0584 94.2727 39.9715 93.3651 38.1901C91.927 35.3677 89.6323 33.073 86.8099 31.6349C83.6012 30 79.4008 30 71 30H70C70 18.9543 61.0457 10 50 10ZM60 30C60 24.4772 55.5228 20 50 20C44.4772 20 40 24.4772 40 30H60Z" fill="white"/>
<path fill-rule="evenodd" clip-rule="evenodd" d="M36.3624 61.8251C35 64.499 35 67.9993 35 75V90C35 97.0007 35 100.501 36.3624 103.175C37.5608 105.527 39.4731 107.439 41.8251 108.638C44.499 110 47.9993 110 55 110H95C102.001 110 105.501 110 108.175 108.638C110.527 107.439 112.439 105.527 113.638 103.175C115 100.501 115 97.0007 115 90V75C115 67.9993 115 64.499 113.638 61.8251C112.439 59.4731 110.527 57.5608 108.175 56.3624C105.501 55 102.001 55 95 55H55C47.9993 55 44.499 55 41.8251 56.3624C39.4731 57.5608 37.5608 59.4731 36.3624 61.8251ZM65 75C65 72.2386 62.7614 70 60 70C57.2386 70 55 72.2386 55 75C55 86.0457 63.9543 95 75 95C86.0457 95 95 86.0457 95 75C95 72.2386 92.7614 70 90 70C87.2386 70 85 72.2386 85 75C85 80.5229 80.5229 85 75 85C69.4771 85 65 80.5229 65 75Z" fill="white"/>
</svg>
