<svg width="32" height="32" viewBox="0 0 32 32" fill="none" xmlns="http://www.w3.org/2000/svg">
<path d="M7.10266 4.85066C6.66669 5.70631 6.66669 6.82642 6.66669 9.06663V9.88802C7.4833 9.53122 8.38521 9.33329 9.33335 9.33329C10.3566 9.33329 11.3261 9.56384 12.1926 9.97583C12.247 9.88607 12.313 9.80136 12.3905 9.72382C12.9112 9.20312 13.7555 9.20312 14.2762 9.72382L17.3334 12.781L20.7811 9.33329H20C19.2636 9.33329 18.6667 8.73634 18.6667 7.99996C18.6667 7.26358 19.2636 6.66663 20 6.66663H24C24.7364 6.66663 25.3334 7.26358 25.3334 7.99996V12C25.3334 12.7363 24.7364 13.3333 24 13.3333C23.2636 13.3333 22.6667 12.7363 22.6667 12V11.2189L18.2762 15.6094C17.7555 16.1301 16.9112 16.1301 16.3905 15.6094L15.9485 15.1674C15.9825 15.4402 16 15.718 16 16C16 17.4193 15.5565 18.735 14.8005 19.816C15.9556 20.5146 16.9198 21.497 17.5964 22.6666H22.9334C25.1736 22.6666 26.2937 22.6666 27.1493 22.2306C27.902 21.8472 28.5139 21.2352 28.8974 20.4826C29.3334 19.6269 29.3334 18.5068 29.3334 16.2666V9.06663C29.3334 6.82642 29.3334 5.70631 28.8974 4.85066C28.5139 4.09802 27.902 3.48609 27.1493 3.1026C26.2937 2.66663 25.1736 2.66663 22.9334 2.66663H13.0667C10.8265 2.66663 9.70637 2.66663 8.85072 3.1026C8.09808 3.48609 7.48615 4.09802 7.10266 4.85066Z" fill="white"/>
<path d="M13.3334 16C13.3334 18.2091 11.5425 20 9.33335 20C7.12421 20 5.33335 18.2091 5.33335 16C5.33335 13.7908 7.12421 12 9.33335 12C11.5425 12 13.3334 13.7908 13.3334 16Z" fill="white"/>
<path d="M2.66669 27.7333C2.66669 26.7424 2.66669 26.2469 2.73235 25.8323C3.0938 23.5502 4.88361 21.7604 7.1657 21.399C7.58028 21.3333 8.07575 21.3333 9.06669 21.3333H9.60002C10.591 21.3333 11.0864 21.3333 11.501 21.399C13.7831 21.7604 15.5729 23.5502 15.9344 25.8323C16 26.2469 16 26.7424 16 27.7333C16 27.981 16 28.1049 15.9836 28.2085C15.8932 28.7791 15.4458 29.2265 14.8753 29.3169C14.7716 29.3333 14.6478 29.3333 14.4 29.3333H4.26669C4.01895 29.3333 3.89508 29.3333 3.79144 29.3169C3.22092 29.2265 2.77346 28.7791 2.6831 28.2085C2.66669 28.1049 2.66669 27.981 2.66669 27.7333Z" fill="white"/>
</svg>
