<svg width="32" height="32" viewBox="0 0 32 32" fill="none" xmlns="http://www.w3.org/2000/svg">
<path fill-rule="evenodd" clip-rule="evenodd" d="M20 2.66663H11.7333C9.4931 2.66663 8.373 2.66663 7.51735 3.1026C6.7647 3.48609 6.15278 4.09802 5.76929 4.85066C5.33331 5.70631 5.33331 6.82642 5.33331 9.06663V22.9333C5.33331 25.1735 5.33331 26.2936 5.76929 27.1493C6.15278 27.9019 6.7647 28.5138 7.51735 28.8973C8.373 29.3333 9.4931 29.3333 11.7333 29.3333H20.2666C22.5069 29.3333 23.627 29.3333 24.4826 28.8973C25.2353 28.5138 25.8472 27.9019 26.2307 27.1493C26.6666 26.2936 26.6666 25.1735 26.6666 22.9333V9.33329L20 2.66663ZM18.6666 4.66663V9.59996C18.6666 9.97333 18.6666 10.16 18.7393 10.3026C18.8032 10.4281 18.9052 10.53 19.0307 10.594C19.1733 10.6666 19.3599 10.6666 19.7333 10.6666H24.6666L18.6666 4.66663ZM10.6666 6.66663C9.93027 6.66663 9.33331 7.26358 9.33331 7.99996C9.33331 8.73634 9.93027 9.33329 10.6666 9.33329H13.3333C14.0697 9.33329 14.6666 8.73634 14.6666 7.99996C14.6666 7.26358 14.0697 6.66663 13.3333 6.66663H10.6666ZM10.6666 10.6666C9.93027 10.6666 9.33331 11.2636 9.33331 12C9.33331 12.7363 9.93027 13.3333 10.6666 13.3333H13.3333C14.0697 13.3333 14.6666 12.7363 14.6666 12C14.6666 11.2636 14.0697 10.6666 13.3333 10.6666H10.6666ZM14.4427 17.9271C14.1392 17.4719 13.5884 17.2482 13.0535 17.363C12.5186 17.4779 12.1081 17.9078 12.0181 18.4475L11.5371 21.3334H10.6666C9.93027 21.3334 9.33331 21.9303 9.33331 22.6667C9.33331 23.4031 9.93027 24 10.6666 24H12.6666C13.3184 24 13.8747 23.5288 13.9818 22.8859L14.0942 22.2117L14.8906 23.4063C15.1379 23.7772 15.5542 24 16 24C16.4458 24 16.8621 23.7772 17.1094 23.4063L17.3333 23.0704L17.5572 23.4063C17.8045 23.7772 18.2208 24 18.6666 24H21.3333C22.0697 24 22.6666 23.4031 22.6666 22.6667C22.6666 21.9303 22.0697 21.3334 21.3333 21.3334H19.3802L18.4427 19.9271C18.1954 19.5562 17.7791 19.3334 17.3333 19.3334C16.8875 19.3334 16.4712 19.5562 16.2239 19.9271L16 20.263L14.4427 17.9271Z" fill="white"/>
</svg>
