<svg width="119" height="104" viewBox="0 0 119 104" fill="none" xmlns="http://www.w3.org/2000/svg">
<path fill-rule="evenodd" clip-rule="evenodd" d="M44 10H75L100 35V70.8542C97.9527 71.5762 96.0309 72.7559 94.3934 74.3934L84.9829 83.8039C79.093 78.5426 70.0477 78.7391 64.3934 84.3934C58.5355 90.2513 58.5355 99.7487 64.3934 105.607L68.7868 110H44C35.5992 110 31.3988 110 28.1901 108.365C25.3677 106.927 23.073 104.632 21.6349 101.81C20 98.6012 20 94.4008 20 86V34C20 25.5992 20 21.3988 21.6349 18.1901C23.073 15.3677 25.3677 13.073 28.1901 11.6349C31.3988 10 35.5992 10 44 10ZM70 36V17.5L92.5 40H74C72.5999 40 71.8998 40 71.365 39.7275C70.8946 39.4878 70.5122 39.1054 70.2725 38.635C70 38.1002 70 37.4001 70 36ZM35 45C35 42.2386 37.2386 40 40 40H45C47.7614 40 50 42.2386 50 45C50 47.7614 47.7614 50 45 50H40C37.2386 50 35 47.7614 35 45ZM35 65C35 62.2386 37.2386 60 40 60H70C72.7614 60 75 62.2386 75 65C75 67.7614 72.7614 70 70 70H40C37.2386 70 35 67.7614 35 65ZM35 85C35 82.2386 37.2386 80 40 80H52.5C55.2614 80 57.5 82.2386 57.5 85C57.5 87.7614 55.2614 90 52.5 90H40C37.2386 90 35 87.7614 35 85Z" fill="white"/>
<path d="M88.5355 108.536L108.536 88.5355C110.488 86.5829 110.488 83.4171 108.536 81.4645C106.583 79.5118 103.417 79.5118 101.464 81.4645L85 97.9289L78.5355 91.4645C76.5829 89.5118 73.4171 89.5118 71.4645 91.4645C69.5118 93.4171 69.5118 96.5829 71.4645 98.5355L81.4645 108.536C83.4171 110.488 86.5829 110.488 88.5355 108.536Z" fill="white"/>
</svg>
