<svg width="32" height="32" viewBox="0 0 32 32" fill="none" xmlns="http://www.w3.org/2000/svg">
<path fill-rule="evenodd" clip-rule="evenodd" d="M20 2.66663H11.7333C9.49312 2.66663 8.37301 2.66663 7.51737 3.1026C6.76472 3.48609 6.1528 4.09802 5.7693 4.85066C5.33333 5.70631 5.33333 6.82642 5.33333 9.06663V22.9333C5.33333 25.1735 5.33333 26.2936 5.7693 27.1493C6.1528 27.9019 6.76472 28.5138 7.51737 28.8973C8.37301 29.3333 9.49312 29.3333 11.7333 29.3333H19.9065L19.8999 29.3271C18.2524 27.5012 17.3333 24.993 17.3333 22.4403L17.3335 20.8568C17.3337 19.9413 17.7108 19.0616 18.3821 18.4296C19.0306 17.8191 19.8956 17.4944 20.7834 17.5254C20.8244 17.5258 20.8744 17.5254 20.9555 17.5246L20.9632 17.5245C21.0058 17.524 21.0668 17.5233 21.1111 17.5233C21.4381 17.5233 21.8382 17.3854 22.2385 16.9597C22.8685 16.2899 23.7472 15.9101 24.6666 15.9101C25.393 15.9101 26.0938 16.1471 26.6667 16.5768V9.33329L20 2.66663ZM18.6667 4.66663V9.59996C18.6667 9.97333 18.6667 10.16 18.7393 10.3026C18.8032 10.4281 18.9052 10.53 19.0307 10.594C19.1733 10.6666 19.36 10.6666 19.7333 10.6666H24.6667L18.6667 4.66663ZM9.33333 12C9.33333 11.2636 9.93028 10.6666 10.6667 10.6666H12C12.7364 10.6666 13.3333 11.2636 13.3333 12C13.3333 12.7363 12.7364 13.3333 12 13.3333H10.6667C9.93028 13.3333 9.33333 12.7363 9.33333 12ZM10.6667 16C9.93028 16 9.33333 16.5969 9.33333 17.3333C9.33333 18.0697 9.93028 18.6666 10.6667 18.6666H13.3333C14.0697 18.6666 14.6667 18.0697 14.6667 17.3333C14.6667 16.5969 14.0697 16 13.3333 16H10.6667ZM9.33333 22.6666C9.33333 21.9302 9.93028 21.3333 10.6667 21.3333H13.3333C14.0697 21.3333 14.6667 21.9302 14.6667 22.6666C14.6667 23.403 14.0697 24 13.3333 24H10.6667C9.93028 24 9.33333 23.403 9.33333 22.6666Z" fill="white"/>
<path d="M24.6666 18.5768C24.8505 18.5768 25.0263 18.6528 25.1523 18.7867C25.9873 19.6746 27.0642 20.1901 28.2222 20.1901C28.2509 20.1901 28.2985 20.1906 28.3487 20.1911L28.45 20.1922C28.4929 20.1925 28.5333 20.1926 28.5674 20.1924L28.6097 20.1918L28.6266 20.1913C28.81 20.1802 28.9899 20.2454 29.1237 20.3714C29.2575 20.4974 29.3333 20.673 29.3333 20.8567V22.4407C29.3333 25.6257 27.4958 28.4089 24.8616 29.2143C24.7345 29.2532 24.5988 29.2532 24.4717 29.2143C21.8375 28.4089 20 25.6257 20 22.4407L20.0002 20.8574C20.0002 20.6736 20.0761 20.4973 20.2099 20.3713C20.3437 20.2454 20.5236 20.1802 20.707 20.1913L20.7238 20.1918L20.766 20.1924C20.8 20.1926 20.8404 20.1925 20.8833 20.1921L20.9838 20.1911C21.0343 20.1905 21.0822 20.19 21.1111 20.19C22.2691 20.19 23.3459 19.6746 24.181 18.7867C24.307 18.6527 24.4827 18.5768 24.6666 18.5768Z" fill="white"/>
</svg>
