<svg width="120" height="120" viewBox="0 0 120 120" fill="none" xmlns="http://www.w3.org/2000/svg">
    <path fill-rule="evenodd" clip-rule="evenodd" d="M25 37.0904C33.6974 28.4008 46.1772 19.6965 55.86 24.1564L41.3866 38.6354C41.062 38.9601 40.7823 39.2398 40.5406 39.5056C35.3387 45.2288 35.3409 53.969 40.5458 59.6895L40.6021 59.7484C41.1889 60.362 41.7791 60.9791 42.4075 61.5501C48.1295 66.75 56.8666 66.7486 62.587 61.547C62.853 61.3051 63.1323 61.0257 63.4573 60.7006L64.9961 59.1618L78.9625 73.1253C79.4011 73.5639 79.4956 73.6605 79.5555 73.7263C80.4229 74.6805 80.8555 75.8789 80.8556 77.0893C80.8556 79.4203 82.4508 81.3787 84.6091 81.9326C84.2403 82.5982 83.7898 83.231 83.2577 83.8164C83.0975 83.9927 82.898 84.1921 82.5 84.5901C82.102 84.9881 81.9025 85.1876 81.7263 85.3478C77.9122 88.8147 72.0878 88.8147 68.2737 85.3478C68.0975 85.1876 67.898 84.9881 67.5 84.5901L65 82.0901C62.2738 84.8164 60.9106 86.1795 59.4402 86.9082C56.6424 88.2946 53.3576 88.2946 50.5598 86.9082C49.0894 86.1795 47.7262 84.8164 45 82.0901C41.5542 86.6845 34.4782 86.0464 31.9098 80.9098L30 77.0901H25V92.0898C25 94.8513 22.7614 97.0898 20 97.0898H10C7.23858 97.0898 5 94.8513 5 92.0898V37.0898C5 34.3284 7.23858 32.0898 10 32.0898H20C22.7614 32.0898 25 34.329 25 37.0904ZM20 86.9995C20 89.7609 17.7614 91.9995 15 91.9995C12.2386 91.9995 10 89.7609 10 86.9995C10 84.2381 12.2386 81.9995 15 81.9995C17.7614 81.9995 20 84.2381 20 86.9995Z" fill="white"/>
    <path fill-rule="evenodd" clip-rule="evenodd" d="M59.9977 27.0902C69.9977 17.0892 84.9977 27.0991 94.9977 37.0902C95.0001 34.3313 97.2414 32.091 100 32.0898H110C112.761 32.0898 115 34.3284 115 37.0898V92.0898C115 94.8513 112.761 97.0898 110 97.0898H100C97.2386 97.0898 95 94.8513 95 92.0898V77.0901L85.8556 77.09C85.8555 74.6804 84.9888 72.2709 83.2554 70.3639C83.0952 70.1876 82.8957 69.9882 82.4977 69.5902L64.9958 52.0918L59.9938 57.0937C59.5972 57.4904 59.3988 57.6888 59.2232 57.8485C55.4096 61.3162 49.5848 61.3171 45.7702 57.8505C45.5945 57.6909 45.3957 57.4922 44.9989 57.0957C44.6025 56.6995 44.4037 56.5008 44.2441 56.3254C40.7741 52.5117 40.7726 46.6849 44.2406 42.8694C44.4003 42.6938 44.5987 42.4953 44.9955 42.0984L59.9977 27.0902ZM110 86.9995C110 89.7609 107.761 91.9995 105 91.9995C102.239 91.9995 100 89.7609 100 86.9995C100 84.2381 102.239 81.9995 105 81.9995C107.761 81.9995 110 84.2381 110 86.9995Z" fill="white"/>
</svg>