<svg width="20" height="20" viewBox="0 0 20 20" fill="none" xmlns="http://www.w3.org/2000/svg">
<path d="M6.5483 6.36364C7.19418 3.85421 9.47214 2 12.1832 2C15.3965 2 18.0014 4.60489 18.0014 7.81818C18.0014 10.38 16.3456 12.5551 14.0459 13.3318M6.5483 14.2714H7.81818M7.81818 14.2714H9M7.81818 14.2714V9.63502C7.81818 9.63502 6.93167 10.2445 6.36364 10.635M13.6364 12.1818C13.6364 15.3951 11.0315 18 7.81818 18C4.60489 18 2 15.3951 2 12.1818C2 8.96852 4.60489 6.36364 7.81818 6.36364C11.0315 6.36364 13.6364 8.96852 13.6364 12.1818Z" stroke="currentColor" stroke-width="1.5" stroke-linecap="round" stroke-linejoin="round"/>
</svg>
