<svg width="20" height="20" viewBox="0 0 20 20" fill="none" xmlns="http://www.w3.org/2000/svg">
<path d="M3.66406 9.31429C3.88559 10.8364 4.64771 12.2278 5.81102 13.2341C6.97432 14.2403 8.46103 14.7941 9.99915 14.7941M9.99915 14.7941C11.5373 14.7941 13.024 14.2403 14.1873 13.2341C15.3506 12.2278 16.1127 10.8364 16.3342 9.31429M9.99915 14.7941V18M10.0001 2C9.27261 2 8.57495 2.28898 8.06057 2.80336C7.54618 3.31775 7.25721 4.01541 7.25721 4.74286V8.4C7.25721 9.12745 7.54618 9.82511 8.06057 10.3395C8.57495 10.8539 9.27261 11.1429 10.0001 11.1429C10.7275 11.1429 11.4252 10.8539 11.9396 10.3395C12.4539 9.82511 12.7429 9.12745 12.7429 8.4V4.74286C12.7429 4.01541 12.4539 3.31775 11.9396 2.80336C11.4252 2.28898 10.7275 2 10.0001 2Z" stroke="currentColor" stroke-width="2" stroke-linecap="round" stroke-linejoin="round"/>
</svg>
