<svg width="36" height="32" viewBox="0 0 36 32" fill="none" xmlns="http://www.w3.org/2000/svg">
<rect x="0.5" y="0.5" width="35" height="31" rx="5.31818" fill="#893DF3"/>
<rect x="0.5" y="0.5" width="35" height="31" rx="5.31818" stroke="#C499FF"/>
<path d="M13.8004 14.2L16.7998 12.0719L23.4004 7.00002M18.0004 11.2L27.0004 17.2M22.2004 14.8L19.2004 25M20.4004 19.6H9.00039M15.6004 19.6L10.8004 7.00002M13.2004 25.6H22.8004C25.4514 25.6 27.6004 23.451 27.6004 20.8V11.2C27.6004 8.54906 25.4514 6.40002 22.8004 6.40002H13.2004C10.5494 6.40002 8.40039 8.54906 8.40039 11.2V20.8C8.40039 23.451 10.5494 25.6 13.2004 25.6Z" stroke="white" stroke-width="1.5" stroke-linecap="round" stroke-linejoin="round"/>
</svg>
