<svg width="16" height="16" viewBox="0 0 16 16" fill="none" xmlns="http://www.w3.org/2000/svg">
<path d="M4.80156 4.08003V4.83003C5.06831 4.83003 5.31499 4.68835 5.4494 4.45794L4.80156 4.08003ZM5.92156 2.16003V1.41003C5.65481 1.41003 5.40814 1.55172 5.27373 1.78213L5.92156 2.16003ZM10.0816 2.16003L10.7294 1.78213C10.595 1.55172 10.3483 1.41003 10.0816 1.41003V2.16003ZM11.2016 4.08003L10.5537 4.45794C10.6881 4.68835 10.9348 4.83003 11.2016 4.83003V4.08003ZM1.60156 12.24H2.35156V5.68003H1.60156H0.851562V12.24H1.60156ZM3.20156 4.08003V4.83003H4.80156V4.08003V3.33003H3.20156V4.08003ZM4.80156 4.08003L5.4494 4.45794L6.5694 2.53794L5.92156 2.16003L5.27373 1.78213L4.15373 3.70213L4.80156 4.08003ZM5.92156 2.16003V2.91003H10.0816V2.16003V1.41003H5.92156V2.16003ZM10.0816 2.16003L9.43373 2.53794L10.5537 4.45794L11.2016 4.08003L11.8494 3.70213L10.7294 1.78213L10.0816 2.16003ZM11.2016 4.08003V4.83003H12.8016V4.08003V3.33003H11.2016V4.08003ZM14.4016 5.68003H13.6516V12.24H14.4016H15.1516V5.68003H14.4016ZM14.4016 12.24H13.6516C13.6516 12.7095 13.271 13.09 12.8016 13.09V13.84V14.59C14.0994 14.59 15.1516 13.5379 15.1516 12.24H14.4016ZM12.8016 4.08003V4.83003C13.271 4.83003 13.6516 5.21059 13.6516 5.68003H14.4016H15.1516C15.1516 4.38216 14.0994 3.33003 12.8016 3.33003V4.08003ZM1.60156 5.68003H2.35156C2.35156 5.21059 2.73212 4.83003 3.20156 4.83003V4.08003V3.33003C1.90369 3.33003 0.851562 4.38216 0.851562 5.68003H1.60156ZM3.20156 13.84V13.09C2.73212 13.09 2.35156 12.7095 2.35156 12.24H1.60156H0.851562C0.851562 13.5379 1.90369 14.59 3.20156 14.59V13.84ZM10.4016 8.56003H9.65156C9.65156 9.4713 8.91283 10.21 8.00156 10.21V10.96V11.71C9.74126 11.71 11.1516 10.2997 11.1516 8.56003H10.4016ZM8.00156 10.96V10.21C7.09029 10.21 6.35156 9.4713 6.35156 8.56003H5.60156H4.85156C4.85156 10.2997 6.26186 11.71 8.00156 11.71V10.96ZM5.60156 8.56003H6.35156C6.35156 7.64876 7.09029 6.91003 8.00156 6.91003V6.16003V5.41003C6.26186 5.41003 4.85156 6.82034 4.85156 8.56003H5.60156ZM8.00156 6.16003V6.91003C8.91283 6.91003 9.65156 7.64876 9.65156 8.56003H10.4016H11.1516C11.1516 6.82034 9.74126 5.41003 8.00156 5.41003V6.16003ZM12.8016 13.84V13.09H3.20156V13.84V14.59H12.8016V13.84Z" fill="currentColor"/>
</svg>
