<svg width="16" height="16" viewBox="0 0 16 16" fill="none" xmlns="http://www.w3.org/2000/svg">
<path d="M7.80832 5.99988C7.80832 7.00749 7.10484 7.72353 6.23705 7.72353C5.36926 7.72353 4.66578 7.00749 4.66578 5.99988C4.66578 4.99228 5.36926 4.39019 6.23705 4.39019C7.10484 4.39019 7.80832 4.99228 7.80832 5.99988Z" stroke="currentColor" stroke-width="1.5" stroke-linejoin="round"/>
<path d="M10.332 11.79C10.332 12.8264 9.11991 13.6666 6.33203 13.6666C3.54415 13.6666 2.33203 12.8264 2.33203 11.79C2.33203 10.7536 4.12289 9.91345 6.33203 9.91345C8.54117 9.91345 10.332 10.7536 10.332 11.79Z" stroke="currentColor" stroke-width="1.5" stroke-linejoin="round"/>
<path d="M11.332 2.66663L11.8987 3.88673L13.2341 4.04859L12.2489 4.96452L12.5076 6.28466L11.332 5.63063L10.1565 6.28466L10.4152 4.96452L9.42992 4.04859L10.7654 3.88673L11.332 2.66663Z" stroke="currentColor" stroke-width="1.5" stroke-linejoin="round"/>
</svg>
