<svg width="20" height="20" viewBox="0 0 20 20" fill="none" xmlns="http://www.w3.org/2000/svg">
<path d="M17.8041 2.68538C17.5899 2.46187 17.3237 2.29511 17.0293 2.20007C16.7349 2.10503 16.4215 2.0847 16.1173 2.14089L15.8326 2.1986C15.5121 2.27217 15.1874 2.32674 14.8604 2.36202C14.166 2.36202 13.4779 1.66663 12.7772 1.66663C12.0766 1.66663 11.0412 2.36202 9.99958 2.36202C8.95797 2.36202 7.90802 1.66663 7.21777 1.66663C6.52753 1.66663 5.83312 2.36202 5.13871 2.36202C4.81289 2.32661 4.48943 2.27204 4.17001 2.1986L3.88322 2.14158C3.57887 2.08462 3.26515 2.10451 2.97041 2.19946C2.67568 2.2944 2.40921 2.46141 2.19511 2.68538C1.97784 2.91044 1.81995 3.18613 1.73569 3.48758C1.65144 3.78903 1.64346 4.10675 1.71249 4.41205L3.05548 10.7798V15.5746C3.06184 16.2479 3.31157 16.8961 3.75842 17.3992C4.20528 17.9023 4.81902 18.2262 5.48604 18.3111C6.15305 18.3959 6.82818 18.2359 7.38645 17.8606C7.94472 17.4854 8.34833 16.9203 8.52257 16.27H11.4766C11.6508 16.9203 12.0544 17.4854 12.6127 17.8606C13.171 18.2359 13.8461 18.3959 14.5131 18.3111C15.1801 18.2262 15.7939 17.9023 16.2407 17.3992C16.6876 16.8961 16.9373 16.2479 16.9437 15.5746V10.7798L18.2839 4.42457C18.355 4.1176 18.3483 3.7977 18.2645 3.49396C18.1807 3.19022 18.0224 2.91227 17.8041 2.68538ZM3.19436 3.64851C3.24872 3.59083 3.31676 3.54783 3.39215 3.52352C3.46753 3.4992 3.54783 3.49436 3.62559 3.50943L3.88738 3.56228C4.31666 3.71452 4.77267 3.77649 5.22693 3.7443C5.68119 3.71211 6.12394 3.58647 6.52753 3.37522V7.9252C6.52753 8.10963 6.60069 8.28651 6.73092 8.41692C6.86115 8.54733 7.03777 8.6206 7.22194 8.6206C7.40611 8.6206 7.58274 8.54733 7.71296 8.41692C7.84319 8.28651 7.91635 8.10963 7.91635 7.9252V3.26604C8.57459 3.55633 9.28103 3.7214 9.99958 3.75282C10.7181 3.7214 11.4246 3.55633 12.0828 3.26604V7.9252C12.0828 8.10963 12.156 8.28651 12.2862 8.41692C12.4164 8.54733 12.5931 8.6206 12.7772 8.6206C12.9614 8.6206 13.138 8.54733 13.2682 8.41692C13.3985 8.28651 13.4716 8.10963 13.4716 7.9252V3.37522C13.8751 3.58621 14.3176 3.7116 14.7717 3.74354C15.2257 3.77549 15.6814 3.71331 16.1104 3.56089L16.3736 3.50734C16.4511 3.49179 16.5313 3.4964 16.6066 3.52075C16.6819 3.5451 16.7496 3.58837 16.8034 3.64642C16.8628 3.70861 16.9055 3.78485 16.9275 3.86803C16.9494 3.95121 16.95 4.03861 16.9291 4.12207L15.6861 10.0114H4.31306L3.06937 4.11234C3.0497 4.03073 3.05084 3.94548 3.07269 3.86443C3.09453 3.78338 3.13637 3.70913 3.19436 3.64851ZM11.4766 14.8792H8.52257C8.41152 14.4666 8.20779 14.0849 7.92692 13.7633C7.64606 13.4416 7.29551 13.1885 6.90203 13.0232C6.50855 12.858 6.08257 12.785 5.65661 12.8098C5.23065 12.8346 4.81599 12.9566 4.4443 13.1664V11.4022H15.5549V13.1664C15.1832 12.9566 14.7685 12.8346 14.3426 12.8098C13.9166 12.785 13.4906 12.858 13.0971 13.0232C12.7037 13.1885 12.3531 13.4416 12.0722 13.7633C11.7914 14.0849 11.5876 14.4666 11.4766 14.8792ZM5.83312 16.9654C5.46478 16.9654 5.11153 16.8188 4.85108 16.558C4.59062 16.2972 4.4443 15.9434 4.4443 15.5746C4.4443 15.2057 4.59062 14.852 4.85108 14.5911C5.11153 14.3303 5.46478 14.1838 5.83312 14.1838C6.20146 14.1838 6.55471 14.3303 6.81517 14.5911C7.07562 14.852 7.22194 15.2057 7.22194 15.5746C7.22194 15.9434 7.07562 16.2972 6.81517 16.558C6.55471 16.8188 6.20146 16.9654 5.83312 16.9654ZM14.166 16.9654C13.7977 16.9654 13.4444 16.8188 13.184 16.558C12.9235 16.2972 12.7772 15.9434 12.7772 15.5746C12.7772 15.2057 12.9235 14.852 13.184 14.5911C13.4444 14.3303 13.7977 14.1838 14.166 14.1838C14.5344 14.1838 14.8876 14.3303 15.1481 14.5911C15.4085 14.852 15.5549 15.2057 15.5549 15.5746C15.5549 15.9434 15.4085 16.2972 15.1481 16.558C14.8876 16.8188 14.5344 16.9654 14.166 16.9654Z" fill="currentColor"/>
</svg>
