<svg width="16" height="16" viewBox="0 0 16 16" fill="none" xmlns="http://www.w3.org/2000/svg">
<path d="M10.3468 10.2115C10.7398 10.3425 11.1645 10.1301 11.2955 9.73717C11.4265 9.34421 11.2141 8.91947 10.8212 8.78849L10.584 9.5L10.3468 10.2115ZM8.33398 8.75H7.58398C7.58398 9.07282 7.79056 9.35943 8.09681 9.46151L8.33398 8.75ZM9.08398 5.61391C9.08398 5.1997 8.7482 4.86391 8.33398 4.86391C7.91977 4.86391 7.58398 5.1997 7.58398 5.61391H8.33398H9.08398ZM10.584 9.5L10.8212 8.78849L8.57116 8.03849L8.33398 8.75L8.09681 9.46151L10.3468 10.2115L10.584 9.5ZM8.33398 8.75H9.08398V5.61391H8.33398H7.58398V8.75H8.33398ZM14.334 8H13.584C13.584 10.8995 11.2335 13.25 8.33398 13.25V14V14.75C12.0619 14.75 15.084 11.7279 15.084 8H14.334ZM8.33398 14V13.25C5.43449 13.25 3.08398 10.8995 3.08398 8H2.33398H1.58398C1.58398 11.7279 4.60606 14.75 8.33398 14.75V14ZM2.33398 8H3.08398C3.08398 5.1005 5.43449 2.75 8.33398 2.75V2V1.25C4.60606 1.25 1.58398 4.27208 1.58398 8H2.33398ZM8.33398 2V2.75C11.2335 2.75 13.584 5.1005 13.584 8H14.334H15.084C15.084 4.27208 12.0619 1.25 8.33398 1.25V2Z" fill="currentColor"/>
</svg>
