<svg width="16" height="16" viewBox="0 0 16 16" fill="none" xmlns="http://www.w3.org/2000/svg">
<path d="M5.3444 10.5227H3.47684C2.29337 10.5227 1.33398 9.70563 1.33398 8.50762C1.33398 7.3096 2.29337 6.33841 3.47684 6.33841C3.55732 6.33841 3.63676 6.3429 3.71494 6.35165V6.33841H3.74441C3.72496 6.1805 3.71494 6.01961 3.71494 5.85637C3.71494 3.72655 5.42052 2 7.52446 2C8.94919 2 10.1912 2.79173 10.8447 3.96428C11.0044 3.9405 11.1678 3.92818 11.334 3.92818C13.1749 3.92818 14.6673 5.43892 14.6673 7.3025C14.6673 9.00242 13.4256 10.2546 11.8102 10.4885H10.084M7.76256 6.57943V14M7.76256 14L6.07357 12.3339M7.76256 14L9.4069 12.3339" stroke="currentColor" stroke-width="1.5" stroke-linecap="round" stroke-linejoin="round"/>
</svg>
