<svg width="20" height="20" viewBox="0 0 20 20" fill="none" xmlns="http://www.w3.org/2000/svg">
<path d="M2.69161 4.72226L15.3587 17.0888M2.69161 4.72226C3.1629 4.18421 3.86683 3.84263 4.65329 3.84263H8.93546M2.69161 4.72226C2.31256 5.15501 2.08398 5.71485 2.08398 6.32629V15.433C2.08398 16.8047 3.2343 17.9167 4.65329 17.9167H14.0741C15.4931 17.9167 16.6434 16.8047 16.6434 15.433V11.7076M8.93546 11.7076L3.36864 17.0888M15.0054 4.89819V4.84527M17.9173 4.837C17.9173 6.67275 15.0054 9.12041 15.0054 9.12041C15.0054 9.12041 12.0936 6.67275 12.0936 4.837C12.0936 3.31621 13.3973 2.08337 15.0054 2.08337C16.6136 2.08337 17.9173 3.31621 17.9173 4.837Z" stroke="currentColor" stroke-width="1.5" stroke-linecap="round" stroke-linejoin="round"/>
</svg>
