<svg width="16" height="16" viewBox="0 0 16 16" fill="none" xmlns="http://www.w3.org/2000/svg">
<path d="M7.39958 2.53583H3.60858C2.35236 2.53583 1.33398 3.55417 1.33398 4.81036V12.3922C1.33398 13.6484 2.35236 14.6667 3.60858 14.6667H11.1906C12.4468 14.6667 13.4652 13.6484 13.4652 12.3922L13.4652 8.60127M5.12498 10.8758L7.88355 10.3199C8.03 10.2904 8.16446 10.2183 8.27006 10.1127L14.4454 3.93415C14.7415 3.63792 14.7413 3.15775 14.4449 2.86177L13.1368 1.55514C12.8406 1.25928 12.3606 1.25948 12.0647 1.55559L5.88872 7.73475C5.78332 7.8402 5.71135 7.97439 5.68182 8.12052L5.12498 10.8758Z" stroke="currentColor" stroke-width="1.5" stroke-linecap="round" stroke-linejoin="round"/>
</svg>
