<svg width="119" height="104" viewBox="0 0 119 104" fill="none" xmlns="http://www.w3.org/2000/svg">
<path d="M65.2805 9.44838C65.5854 6.70384 68.0575 4.72612 70.802 5.03101C82.0758 6.28343 92.5886 11.332 100.614 19.3477C108.64 27.3635 113.702 37.87 114.969 49.1421C115.277 51.8863 113.302 54.3608 110.558 54.6692C107.814 54.9775 105.34 53.0029 105.031 50.2588C104.018 41.241 99.9685 32.8358 93.5479 26.4232C87.1272 20.0106 78.7169 15.9718 69.6979 14.9699C66.9534 14.665 64.9756 12.1929 65.2805 9.44838Z" fill="white"/>
<path d="M65.3425 29.043C65.8713 26.3327 68.4971 24.5642 71.2074 25.093C77.0678 26.2364 82.4538 29.1025 86.6758 33.3246C90.8979 37.5467 93.764 42.9326 94.9074 48.793C95.4362 51.5033 93.6678 54.1291 90.9574 54.6579C88.2471 55.1867 85.6213 53.4182 85.0925 50.7079C84.3302 46.801 82.4195 43.2104 79.6048 40.3957C76.79 37.5809 73.1994 35.6702 69.2925 34.9079C66.5822 34.3791 64.8137 31.7533 65.3425 29.043Z" fill="white"/>
<path d="M22.309 9.9982C22.4806 9.99907 22.6478 9.99992 22.8101 9.99992H36.8966L37.3244 9.9987C38.8702 9.99221 40.8104 9.98406 42.5824 10.6644C44.1111 11.2514 45.4723 12.2048 46.5463 13.4409C47.7913 14.8737 48.4467 16.6998 48.9689 18.1548L49.1139 18.5573L54.9922 34.7225C55.3523 35.7125 55.7095 36.6944 55.9531 37.5598C56.2244 38.524 56.4561 39.6728 56.3709 40.983C56.2507 42.8298 55.6205 44.6069 54.5503 46.1167C53.791 47.1878 52.8873 47.934 52.069 48.5118C51.3346 49.0304 50.4386 49.5679 49.5351 50.1098L49.4696 50.1491L40.8585 55.616C46.0886 65.6478 54.3539 73.92 64.3832 79.1426L69.8508 70.5303L69.8901 70.4648C70.432 69.5613 70.9695 68.6653 71.4881 67.9309C72.0659 67.1126 72.8121 66.2089 73.8832 65.4496C75.393 64.3794 77.1702 63.7492 79.0169 63.629C80.3271 63.5438 81.4759 63.7755 82.4402 64.0469C83.3055 64.2904 84.2876 64.6477 85.2775 65.0078L101.443 70.886L101.845 71.0311C103.3 71.5533 105.126 72.2086 106.559 73.4536C107.795 74.5277 108.749 75.8888 109.335 77.4176C110.016 79.1895 110.008 81.1297 110.001 82.6756L110 83.1033V97.1898L110 97.3708L110.002 97.6909C110.011 99.5369 110.023 101.886 109.007 103.992C108.16 105.75 106.682 107.34 104.99 108.315C102.968 109.478 100.755 109.63 99.0443 109.747L98.6065 109.777C96.5895 109.925 94.5531 110 92.5 110C46.9365 110 10 73.0634 10 27.4999C10 25.4469 10.0751 23.4104 10.2228 21.3934L10.2534 20.9556C10.3703 19.245 10.5216 17.0315 11.6854 15.0102C12.6595 13.3183 14.2496 11.8404 16.0082 10.9924C18.1142 9.97691 20.463 9.98883 22.309 9.9982Z" fill="white"/>
</svg>
