<svg width="119" height="104" viewBox="0 0 119 104" fill="none" xmlns="http://www.w3.org/2000/svg">
<path d="M34.0169 15H85.9835C88.2964 14.9999 90.3603 14.9998 92.0736 15.1573C93.9159 15.3266 95.8114 15.7079 97.6331 16.7521C100.283 18.2713 102.333 20.6313 103.586 23.3973C104.418 25.2348 104.725 27.1359 104.866 29.0699C105 30.9199 105 33.1738 105 35.8244V58.9981C102.628 55.4032 99.1258 52.6193 95 51.1515V36C95 33.1264 94.9969 31.2385 94.892 29.7942C94.7903 28.3932 94.6131 27.8246 94.4765 27.523C94.0249 26.5257 93.3548 25.8261 92.6601 25.4278C92.5803 25.3821 92.2805 25.2184 91.1583 25.1153C89.9579 25.0049 88.3596 25 85.7778 25H34.2222C31.6404 25 30.0421 25.0049 28.8417 25.1153C27.7195 25.2184 27.4197 25.3821 27.34 25.4278C26.6452 25.8261 25.9751 26.5257 25.5235 27.523C25.3869 27.8246 25.2097 28.3932 25.108 29.7942C25.0031 31.2385 25 33.1264 25 36V51.1483C20.8755 52.6133 17.374 55.3934 15 58.9843V35.8244C14.9999 33.1738 14.9999 30.9199 15.1342 29.0699C15.2747 27.1359 15.582 25.2348 16.4142 23.3973C17.667 20.6313 19.7166 18.2713 22.3669 16.7521C24.1886 15.7079 26.0841 15.3266 27.9264 15.1573C29.6397 14.9998 31.704 14.9999 34.0169 15Z" fill="white"/>
<path d="M31.6957 60C26.1728 60 21.6957 64.4772 21.6957 70C21.6957 75.5229 26.1728 80 31.6957 80C37.2185 80 41.6957 75.5229 41.6957 70C41.6957 64.4772 37.2185 60 31.6957 60Z" fill="white"/>
<path d="M59.9959 60C54.473 60 49.9959 64.4772 49.9959 70C49.9959 75.5229 54.473 80 59.9959 80C65.5187 80 69.9959 75.5229 69.9959 70C69.9959 64.4772 65.5187 60 59.9959 60Z" fill="white"/>
<path d="M78.2954 70C78.2954 64.4772 82.7726 60 88.2954 60C93.8183 60 98.2954 64.4772 98.2954 70C98.2954 75.5229 93.8183 80 88.2954 80C82.7726 80 78.2954 75.5229 78.2954 70Z" fill="white"/>
<path d="M12.836 98.3338C11.9158 100.937 13.2804 103.794 15.884 104.714C16.3961 104.895 16.918 104.988 17.433 105L102.5 105.001C103.034 104.995 103.577 104.902 104.109 104.714C106.713 103.794 108.077 100.937 107.157 98.3338C104.414 90.5726 97.0123 85 88.2964 85C82.7658 85 77.7644 87.2437 74.1466 90.8667C70.5288 87.2437 65.5274 85 59.9968 85C54.4661 85 49.4646 87.2439 45.8468 90.867C42.2289 87.2439 37.2274 85 31.6967 85C22.9807 85 15.5792 90.5726 12.836 98.3338Z" fill="white"/>
</svg>
